<svg fill="currentColor" xmlns="http://www.w3.org/2000/svg" class="w-4 h-2">
<mask id="a" style="mask-type:luminance" maskUnits="userSpaceOnUse" x="0" y="0" >
<path d="M198.715 0H0v222.479h198.715V0Z" fill="#fff"/></mask>
<g mask="url(#a)" fill="#fff">
<path d="M19.008 142.146v8.792a11.59 11.59 0 0 0 4.964 9.506l34.847-34.848-9.66-9.661a2.792 2.792 0 0 0-1.969-.815 2.78 2.78 0 0 0-1.968.815l-26.214 26.211Z"/><path d="M47.187 104.528a8.82 8.82 0 0 1 6.287 2.605l11.9 11.9L89.807 94.6a13.517 13.517 0 0 1 19.1 0l33.973 33.973 10.5-10.5a8.9 8.9 0 0 1 12.573 0l13.754 13.765V71.546a11.6 11.6 0 0 0-5.8-10.044l-68.751-39.694a11.6 11.6 0 0 0-11.6 0L24.804 61.502a11.6 11.6 0 0 0-5.8 10.044v57.478l21.892-21.892a8.829 8.829 0 0 1 6.29-2.604Z"/><path d="m149.439 135.138 25.3 25.305a11.593 11.593 0 0 0 4.963-9.506v-5.98l-18.075-18.075a2.783 2.783 0 0 0-3.937 0l-8.251 8.256ZM142.878 141.696l-6.559-6.558-33.973-33.972a4.226 4.226 0 0 0-5.975 0l-24.433 24.433-6.56 6.56-33.123 33.119 61.3 35.394a11.601 11.601 0 0 0 11.6 0l61.3-35.394-23.577-23.582Z"/><path d="M99.358 9.592c2.274 0 4.509.598 6.478 1.735l76.809 44.346a12.952 12.952 0 0 1 6.478 11.221v88.692a12.96 12.96 0 0 1-6.478 11.22l-76.809 44.346a12.96 12.96 0 0 1-12.957 0L16.07 166.806a12.958 12.958 0 0 1-6.478-11.22V66.894a12.957 12.957 0 0 1 6.478-11.221l76.809-44.346a12.954 12.954 0 0 1 6.479-1.735Zm0-9.592a22.58 22.58 0 0 0-11.274 3.021l-76.81 44.346A22.61 22.61 0 0 0 0 66.894v88.692a22.608 22.608 0 0 0 11.275 19.527l76.809 44.346a22.548 22.548 0 0 0 22.548 0l76.809-44.346a22.613 22.613 0 0 0 11.278-19.527V66.894a22.61 22.61 0 0 0-11.274-19.527L110.636 3.021A22.581 22.581 0 0 0 99.362 0h-.004Z"/></g><path d="m226.816 119 15.744-41.216h7.808L265.984 119h-7.168l-4.096-10.624h-16.576L234.048 119h-7.232Zm12.416-16h14.336L246.4 84.12 239.232 103Zm33.613 16V77.784h18.944c4.608 0 7.957 1.195 10.048 3.584 2.133 2.347 3.2 5.547 3.2 9.6 0 2.901-.726 5.376-2.176 7.424-1.451 2.048-3.542 3.477-6.272 4.288.768.555 1.365 1.152 1.792 1.792.426.64.853 1.493 1.28 2.56L304.845 119h-7.168l-5.056-11.52c-.47-1.109-1.046-1.899-1.728-2.368-.64-.469-1.75-.704-3.328-.704h-7.744V119h-6.976Zm6.976-20.224h10.112c2.517 0 4.501-.619 5.952-1.856 1.45-1.237 2.176-3.221 2.176-5.952 0-5.163-2.496-7.744-7.488-7.744h-10.752v15.552ZM322.595 119V83.224h-13.184v-5.44h33.28v5.44h-13.12V119h-6.976Zm54.965 0-15.744-41.216h7.232l12.352 33.728 12.352-33.728h7.232L385.368 119h-7.808Zm20.444 0 15.744-41.216h7.808L437.172 119h-7.168l-4.096-10.624h-16.576L405.236 119h-7.232Zm12.416-16h14.336l-7.168-18.88L410.42 103Zm33.612 16V77.784h6.144l21.504 30.336V77.784h6.912V119h-6.144l-21.44-30.272V119h-6.976Zm42.688 0V77.784h16.704c6.101 0 10.624 1.621 13.568 4.864 2.944 3.2 4.416 8.533 4.416 16 0 7.04-1.451 12.203-4.352 15.488-2.902 3.243-7.446 4.864-13.632 4.864H486.72Zm6.976-5.376h8.64c2.688 0 4.928-.384 6.72-1.152 1.792-.811 3.136-2.304 4.032-4.48.896-2.176 1.344-5.291 1.344-9.344 0-4.053-.406-7.19-1.216-9.408-.811-2.219-2.112-3.776-3.904-4.672-1.75-.896-4.075-1.344-6.976-1.344h-8.64v30.4ZM528.282 119V77.784h28.736v5.44h-21.76v12.48h19.392v5.376h-19.392v12.544h21.76V119h-28.736Zm35.188 0V77.784h6.976v35.84h21.12V119H563.47Zm32.409 0 15.744-41.216h7.808L635.047 119h-7.168l-4.096-10.624h-16.576L603.111 119h-7.232Zm12.416-16h14.336l-7.168-18.88-7.168 18.88Zm37.866 16v-15.296l-14.784-25.92h7.232l11.008 20.032 11.008-20.032h7.232l-14.784 25.92V119h-6.912Zm43.246 0V77.784h6.976V119h-6.976Zm15.063 0V77.784h6.144l21.504 30.336V77.784h6.912V119h-6.144l-21.44-30.272V119h-6.976Zm42.687 0V77.784h16.704c6.101 0 10.624 1.621 13.568 4.864 2.944 3.2 4.416 8.533 4.416 16 0 7.04-1.451 12.203-4.352 15.488-2.901 3.243-7.445 4.864-13.632 4.864h-16.704Zm6.976-5.376h8.64c2.688 0 4.928-.384 6.72-1.152 1.792-.811 3.136-2.304 4.032-4.48.896-2.176 1.344-5.291 1.344-9.344 0-4.053-.405-7.19-1.216-9.408-.811-2.219-2.112-3.776-3.904-4.672-1.749-.896-4.075-1.344-6.976-1.344h-8.64v30.4Zm52.187 6.016c-5.675 0-10.091-1.365-13.248-4.096-3.115-2.731-4.672-6.677-4.672-11.84v-25.92h6.976v25.664c0 3.456.938 6.037 2.816 7.744 1.92 1.707 4.629 2.56 8.128 2.56 3.456 0 6.122-.853 8-2.56 1.92-1.707 2.88-4.288 2.88-7.744V77.784h6.912v25.92c0 5.163-1.558 9.109-4.672 11.84-3.115 2.731-7.488 4.096-13.12 4.096Zm38.005 0c-5.334 0-9.622-.683-12.864-2.048v-6.144a39.501 39.501 0 0 0 5.888 1.664c2.133.427 4.245.64 6.336.64 3.285 0 5.738-.384 7.36-1.152 1.664-.768 2.496-2.304 2.496-4.608 0-1.408-.342-2.539-1.024-3.392-.683-.853-1.814-1.579-3.392-2.176-1.579-.64-3.755-1.301-6.528-1.984-4.438-1.152-7.552-2.603-9.344-4.352-1.792-1.792-2.688-4.245-2.688-7.36 0-3.627 1.322-6.464 3.968-8.512 2.645-2.048 6.592-3.072 11.84-3.072 2.389 0 4.629.17 6.72.512 2.133.341 3.797.725 4.992 1.152v6.144c-3.243-1.237-6.827-1.856-10.752-1.856-3.072 0-5.462.405-7.168 1.216-1.707.81-2.56 2.283-2.56 4.416 0 1.237.298 2.24.896 3.008.597.768 1.621 1.43 3.072 1.984 1.493.555 3.541 1.173 6.144 1.856 3.37.853 5.973 1.877 7.808 3.072 1.877 1.152 3.178 2.517 3.904 4.096.768 1.536 1.152 3.285 1.152 5.248 0 3.627-1.344 6.485-4.032 8.576-2.688 2.048-6.763 3.072-12.224 3.072Zm31.145-.64V83.224h-13.184v-5.44h33.28v5.44h-13.12V119h-6.976Zm25.687 0V77.784h18.944c4.608 0 7.957 1.195 10.048 3.584 2.133 2.347 3.2 5.547 3.2 9.6 0 2.901-.725 5.376-2.176 7.424s-3.541 3.477-6.272 4.288c.768.555 1.365 1.152 1.792 1.792.427.64.853 1.493 1.28 2.56L933.157 119h-7.168l-5.056-11.52c-.469-1.109-1.045-1.899-1.728-2.368-.64-.469-1.749-.704-3.328-.704h-7.744V119h-6.976Zm6.976-20.224h10.112c2.517 0 4.501-.619 5.952-1.856 1.451-1.237 2.176-3.221 2.176-5.952 0-5.163-2.496-7.744-7.488-7.744h-10.752v15.552ZM940.22 119V77.784h6.976V119h-6.976Zm15.062 0V77.784h28.736v5.44h-21.76v12.48h19.392v5.376h-19.392v12.544h21.76V119h-28.736Zm46.418.64c-5.334 0-9.622-.683-12.864-2.048v-6.144a39.501 39.501 0 0 0 5.888 1.664c2.133.427 4.245.64 6.336.64 3.28 0 5.74-.384 7.36-1.152 1.66-.768 2.5-2.304 2.5-4.608 0-1.408-.35-2.539-1.03-3.392-.68-.853-1.81-1.579-3.39-2.176-1.58-.64-3.76-1.301-6.528-1.984-4.438-1.152-7.552-2.603-9.344-4.352-1.792-1.792-2.688-4.245-2.688-7.36 0-3.627 1.322-6.464 3.968-8.512 2.645-2.048 6.592-3.072 11.842-3.072 2.39 0 4.63.17 6.72.512 2.13.341 3.79.725 4.99 1.152v6.144c-3.24-1.237-6.83-1.856-10.75-1.856-3.07 0-5.464.405-7.17 1.216-1.707.81-2.56 2.283-2.56 4.416 0 1.237.298 2.24.896 3.008.597.768 1.621 1.43 3.072 1.984 1.492.555 3.542 1.173 6.142 1.856 3.37.853 5.97 1.877 7.81 3.072 1.88 1.152 3.18 2.517 3.9 4.096.77 1.536 1.16 3.285 1.16 5.248 0 3.627-1.35 6.485-4.04 8.576-2.68 2.048-6.76 3.072-12.22 3.072ZM228.648 166v-22.4h2.368v20.352h12.544V166h-14.912Zm15.26 0 10.24-22.4h2.336l10.24 22.4h-2.496l-9.408-21.024h.96L246.372 166h-2.464Zm4.032-5.984.704-1.92h13.024l.704 1.92H247.94ZM273.656 166v-20.352h-7.872V143.6h18.112v2.048h-7.872V166h-2.368Zm16.135-12.384h11.84v2.016h-11.84v-2.016Zm.256 10.336h13.472V166h-15.84v-22.4h15.36v2.048h-12.992v18.304ZM305.7 166l9.184-12.416v1.824l-8.64-11.808h2.72l7.264 9.856-1.056.032 7.264-9.888h2.56l-8.544 11.648v-1.664L325.604 166h-2.752l-7.744-10.528h.992L308.42 166h-2.72Zm32.479 0v-22.4h2.368V166h-2.368Zm9.657 0v-22.4h1.952l10.24 17.472h-1.024l10.144-17.472h1.952V166h-2.272v-18.848h.544l-9.344 16h-1.12l-9.408-16h.608V166h-2.272Zm30.562 0v-22.4h8.384c1.899 0 3.531.309 4.896.928 1.365.597 2.411 1.472 3.136 2.624.747 1.131 1.12 2.507 1.12 4.128 0 1.579-.373 2.944-1.12 4.096-.725 1.131-1.771 2.005-3.136 2.624-1.365.619-2.997.928-4.896.928h-7.072l1.056-1.12V166h-2.368Zm2.368-8-1.056-1.152h7.008c2.24 0 3.936-.48 5.088-1.44 1.173-.981 1.76-2.357 1.76-4.128 0-1.792-.587-3.179-1.76-4.16-1.152-.981-2.848-1.472-5.088-1.472h-7.008l1.056-1.12V158Zm30.393 8.192c-1.686 0-3.254-.277-4.704-.832a11.6 11.6 0 0 1-3.744-2.4 11.681 11.681 0 0 1-2.464-3.616c-.576-1.387-.864-2.901-.864-4.544 0-1.643.288-3.147.864-4.512a11.198 11.198 0 0 1 2.464-3.616 10.94 10.94 0 0 1 3.744-2.4c1.429-.576 2.997-.864 4.704-.864 1.685 0 3.242.288 4.672.864a10.857 10.857 0 0 1 3.712 2.368 10.588 10.588 0 0 1 2.464 3.616c.597 1.387.896 2.901.896 4.544 0 1.643-.299 3.157-.896 4.544a10.588 10.588 0 0 1-2.464 3.616c-1.046 1.024-2.283 1.824-3.712 2.4-1.43.555-2.987.832-4.672.832Zm0-2.112c1.344 0 2.581-.224 3.712-.672a8.902 8.902 0 0 0 2.976-1.952 9.206 9.206 0 0 0 1.984-2.944c.469-1.131.704-2.368.704-3.712 0-1.344-.235-2.571-.704-3.68a8.758 8.758 0 0 0-1.984-2.944 8.308 8.308 0 0 0-2.976-1.952c-1.131-.469-2.368-.704-3.712-.704-1.344 0-2.592.235-3.744.704a8.624 8.624 0 0 0-3.008 1.952 9.404 9.404 0 0 0-1.984 2.944c-.47 1.109-.704 2.336-.704 3.68 0 1.323.234 2.549.704 3.68a9.8 9.8 0 0 0 1.984 2.976 9.26 9.26 0 0 0 3.008 1.952c1.152.448 2.4.672 3.744.672Zm17.052 1.92v-22.4h8.384c1.898 0 3.53.309 4.896.928 1.365.597 2.41 1.472 3.136 2.624.746 1.131 1.12 2.507 1.12 4.128 0 1.579-.374 2.944-1.12 4.096-.726 1.131-1.771 2.005-3.136 2.624-1.366.597-2.998.896-4.896.896h-7.072l1.056-1.088V166h-2.368Zm15.296 0-5.76-8.128h2.56l5.792 8.128h-2.592Zm-12.928-8-1.056-1.12h7.008c2.24 0 3.936-.491 5.088-1.472 1.173-.981 1.759-2.357 1.759-4.128 0-1.792-.586-3.179-1.759-4.16-1.152-.981-2.848-1.472-5.088-1.472h-7.008l1.056-1.12V158Zm24.796 8v-20.352h-7.872V143.6h18.112v2.048h-7.872V166h-2.368Zm27.838.192c-1.451 0-2.741-.235-3.872-.704-1.131-.491-2.027-1.163-2.688-2.016-.64-.853-.96-1.845-.96-2.976 0-.96.213-1.835.64-2.624.427-.811 1.109-1.6 2.048-2.368.96-.789 2.229-1.611 3.808-2.464 1.344-.747 2.389-1.387 3.136-1.92.768-.555 1.312-1.077 1.632-1.568.32-.512.48-1.056.48-1.632 0-.832-.288-1.504-.864-2.016-.555-.512-1.355-.768-2.4-.768-1.131 0-2.005.288-2.624.864-.619.555-.928 1.28-.928 2.176 0 .448.064.875.192 1.28.149.405.416.853.8 1.344.405.491.96 1.109 1.664 1.856l11.84 12.192-1.312 1.504-12.352-12.704a28.858 28.858 0 0 1-1.792-2.048c-.427-.597-.725-1.163-.896-1.696a5.522 5.522 0 0 1-.256-1.696c0-.96.224-1.792.672-2.496.469-.725 1.131-1.28 1.984-1.664.853-.405 1.856-.608 3.008-.608 1.045 0 1.952.181 2.72.544.789.341 1.397.843 1.824 1.504.448.661.672 1.461.672 2.4a4.48 4.48 0 0 1-.608 2.272c-.384.704-1.024 1.397-1.92 2.08-.896.661-2.112 1.408-3.648 2.24-1.344.747-2.411 1.429-3.2 2.048-.768.619-1.312 1.227-1.632 1.824a3.886 3.886 0 0 0-.48 1.92c0 .811.224 1.525.672 2.144.469.597 1.109 1.067 1.92 1.408.832.32 1.781.48 2.848.48 1.493 0 2.827-.309 4-.928s2.155-1.557 2.944-2.816c.811-1.259 1.397-2.837 1.76-4.736l1.824.576c-.405 2.133-1.099 3.925-2.08 5.376-.981 1.451-2.197 2.549-3.648 3.296-1.451.747-3.093 1.12-4.928 1.12Zm26.453-12.576h11.84v2.016h-11.84v-2.016Zm.256 10.336h13.472V166h-15.84v-22.4h15.36v2.048h-12.992v18.304ZM525.575 166l9.184-12.416v1.824l-8.64-11.808h2.72l7.264 9.856-1.056.032 7.264-9.888h2.56l-8.544 11.648v-1.664L545.479 166h-2.752l-7.744-10.528h.992L528.295 166h-2.72Zm23.323 0v-22.4h8.384c1.899 0 3.531.309 4.896.928 1.365.597 2.411 1.472 3.136 2.624.747 1.131 1.12 2.507 1.12 4.128 0 1.579-.373 2.944-1.12 4.096-.725 1.131-1.771 2.005-3.136 2.624-1.365.619-2.997.928-4.896.928h-7.072l1.056-1.12V166h-2.368Zm2.368-8-1.056-1.152h7.008c2.24 0 3.936-.48 5.088-1.44 1.173-.981 1.76-2.357 1.76-4.128 0-1.792-.587-3.179-1.76-4.16-1.152-.981-2.848-1.472-5.088-1.472h-7.008l1.056-1.12V158Zm30.393 8.192c-1.686 0-3.254-.277-4.704-.832a11.6 11.6 0 0 1-3.744-2.4 11.681 11.681 0 0 1-2.464-3.616c-.576-1.387-.864-2.901-.864-4.544 0-1.643.288-3.147.864-4.512a11.198 11.198 0 0 1 2.464-3.616 10.94 10.94 0 0 1 3.744-2.4c1.429-.576 2.997-.864 4.704-.864 1.685 0 3.242.288 4.672.864a10.857 10.857 0 0 1 3.712 2.368 10.588 10.588 0 0 1 2.464 3.616c.597 1.387.896 2.901.896 4.544 0 1.643-.299 3.157-.896 4.544a10.588 10.588 0 0 1-2.464 3.616c-1.046 1.024-2.283 1.824-3.712 2.4-1.43.555-2.987.832-4.672.832Zm0-2.112c1.344 0 2.581-.224 3.712-.672a8.902 8.902 0 0 0 2.976-1.952 9.206 9.206 0 0 0 1.984-2.944c.469-1.131.704-2.368.704-3.712 0-1.344-.235-2.571-.704-3.68a8.758 8.758 0 0 0-1.984-2.944 8.308 8.308 0 0 0-2.976-1.952c-1.131-.469-2.368-.704-3.712-.704-1.344 0-2.592.235-3.744.704a8.624 8.624 0 0 0-3.008 1.952 9.404 9.404 0 0 0-1.984 2.944c-.47 1.109-.704 2.336-.704 3.68 0 1.323.234 2.549.704 3.68a9.8 9.8 0 0 0 1.984 2.976 9.26 9.26 0 0 0 3.008 1.952c1.152.448 2.4.672 3.744.672Zm17.052 1.92v-22.4h8.384c1.898 0 3.53.309 4.896.928 1.365.597 2.41 1.472 3.136 2.624.746 1.131 1.12 2.507 1.12 4.128 0 1.579-.374 2.944-1.12 4.096-.726 1.131-1.771 2.005-3.136 2.624-1.366.597-2.998.896-4.896.896h-7.072l1.056-1.088V166h-2.368Zm15.296 0-5.76-8.128h2.56l5.792 8.128h-2.592Zm-12.928-8-1.056-1.12h7.008c2.24 0 3.936-.491 5.088-1.472 1.173-.981 1.759-2.357 1.759-4.128 0-1.792-.586-3.179-1.759-4.16-1.152-.981-2.848-1.472-5.088-1.472h-7.008l1.056-1.12V158Zm24.796 8v-20.352h-7.872V143.6h18.112v2.048h-7.872V166h-2.368Z" fill="#fff"/>
</svg>
